<?xml version="1.0" encoding="UTF-8" standalone="no"?>
<!DOCTYPE svg PUBLIC "-//W3C//DTD SVG 1.1//EN" "http://www.w3.org/Graphics/SVG/1.1/DTD/svg11.dtd">
<svg xmlns="http://www.w3.org/2000/svg" version="1.1" viewBox="0.00 0.00 1024.00 1024.00">
<g stroke-width="2.00" fill="none" stroke-linecap="butt">
<path stroke="#8e87a5" vector-effect="non-scaling-stroke" d="
  M 382.15 189.77
  C 376.46 187.59 374.56 192.40 374.02 196.79
  Q 373.95 197.32 373.42 197.37
  Q 368.92 197.77 360.75 198.27
  C 333.71 199.94 309.11 208.00 290.07 228.07
  Q 269.67 249.57 268.58 279.51
  Q 268.32 286.65 268.40 314.04"
/>
<path stroke="#fad5cf" vector-effect="non-scaling-stroke" d="
  M 268.40 314.04
  L 268.33 315.29
  Q 268.30 315.78 267.99 316.15
  Q 259.08 326.85 246.70 343.94
  Q 192.39 418.92 182.20 509.79
  Q 181.06 519.88 180.69 529.72
  C 178.05 599.62 198.00 671.77 240.87 727.89
  Q 252.57 743.22 268.30 759.79"
/>
<path stroke="#8e87a5" vector-effect="non-scaling-stroke" d="
  M 268.30 759.79
  L 268.45 780.94
  Q 268.46 781.56 269.08 781.56
  L 298.22 781.76"
/>
<path stroke="#fad5cf" vector-effect="non-scaling-stroke" d="
  M 298.22 781.76
  L 298.96 782.82
  A 0.66 0.52 4.7 0 0 299.11 782.96
  C 407.20 864.21 555.80 859.98 667.58 790.62
  C 670.62 788.73 673.57 786.40 676.44 784.22
  Q 677.62 783.33 677.47 781.78"
/>
<path stroke="#8e87a5" vector-effect="non-scaling-stroke" d="
  M 677.47 781.78
  C 706.20 780.25 730.39 761.17 737.80 733.31"
/>
<path stroke="#fad5cf" vector-effect="non-scaling-stroke" d="
  M 737.80 733.31
  Q 740.54 731.88 741.57 730.52
  C 788.33 668.43 809.35 591.57 803.00 514.45
  C 799.15 467.64 783.56 421.07 760.40 380.10
  Q 750.78 363.08 738.96 348.37"
/>
<path stroke="#8e87a5" vector-effect="non-scaling-stroke" d="
  M 738.96 348.37
  L 738.98 196.05
  Q 738.98 195.41 738.34 195.41
  L 630.43 196.03"
/>
<path stroke="#fbdc82" vector-effect="non-scaling-stroke" d="
  M 630.43 196.03
  Q 634.56 189.15 630.02 183.55
  Q 623.17 175.12 613.21 180.98
  Q 608.59 183.71 609.20 189.18"
/>
<path stroke="#8e87a5" vector-effect="non-scaling-stroke" d="
  M 609.20 189.18
  C 602.89 188.06 603.09 190.81 601.05 195.20
  Q 600.82 195.70 600.27 195.71
  L 556.41 196.06"
/>
<path stroke="#fbdc82" vector-effect="non-scaling-stroke" d="
  M 556.41 196.06
  C 559.69 187.36 554.18 177.63 544.75 178.79
  Q 534.37 180.07 534.15 190.01"
/>
<path stroke="#8e87a5" vector-effect="non-scaling-stroke" d="
  M 534.15 190.01
  C 528.53 187.38 527.28 191.39 525.91 195.62
  A 0.77 0.77 0.0 0 1 525.19 196.15
  L 480.23 196.49"
/>
<path stroke="#fbdc82" vector-effect="non-scaling-stroke" d="
  M 480.23 196.49
  Q 479.49 196.12 479.64 195.78
  Q 483.01 188.07 477.50 182.29
  Q 473.17 177.75 467.26 178.93
  Q 457.56 180.86 457.87 189.94"
/>
<path stroke="#8e87a5" vector-effect="non-scaling-stroke" d="
  M 457.87 189.94
  C 452.99 187.95 450.93 190.39 449.88 194.69
  C 449.29 197.15 447.33 196.42 445.43 196.43
  Q 425.56 196.54 403.68 196.58"
/>
<path stroke="#fbdc82" vector-effect="non-scaling-stroke" d="
  M 403.68 196.58
  Q 407.71 189.80 403.26 183.56
  C 398.26 176.52 388.91 177.68 383.88 184.08
  C 382.58 185.73 382.52 187.76 382.15 189.77"
/>
<path stroke="#8d6429" vector-effect="non-scaling-stroke" d="
  M 403.68 196.58
  Q 401.29 215.46 399.97 235.25
  C 399.49 242.42 393.79 250.67 385.49 245.63
  Q 380.01 242.31 380.16 234.98
  Q 380.53 216.77 382.37 193.92
  C 382.48 192.58 382.22 191.13 382.15 189.77"
/>
<path stroke="#8c5d76" vector-effect="non-scaling-stroke" d="
  M 738.96 348.37
  Q 738.96 532.71 738.89 716.75
  Q 738.88 725.04 737.80 733.31"
/>
<path stroke="#8c5d76" vector-effect="non-scaling-stroke" d="
  M 677.47 781.78
  L 298.22 781.76"
/>
<path stroke="#8c5d76" vector-effect="non-scaling-stroke" d="
  M 268.30 759.79
  L 268.40 314.04"
/>
<path stroke="#8d6429" vector-effect="non-scaling-stroke" d="
  M 480.23 196.49
  Q 479.59 196.28 479.18 196.51
  Q 478.85 196.69 478.80 197.31
  Q 476.42 228.44 475.26 237.50
  C 474.53 243.18 466.51 250.55 460.88 245.51
  Q 454.92 240.17 455.46 230.98
  Q 456.67 210.51 457.87 189.94"
/>
<path stroke="#8d6429" vector-effect="non-scaling-stroke" d="
  M 556.41 196.06
  Q 555.52 195.70 555.41 196.99
  Q 553.65 216.62 551.91 236.24
  C 551.22 244.07 543.22 251.16 535.96 244.14
  Q 532.56 240.85 532.45 235.50
  Q 532.28 226.60 532.49 224.00
  Q 533.91 207.05 534.15 190.01"
/>
<path stroke="#8d6429" vector-effect="non-scaling-stroke" d="
  M 630.43 196.03
  Q 627.79 214.20 626.30 233.25
  C 625.76 240.08 620.77 250.82 611.87 246.03
  C 605.50 242.60 605.89 233.29 606.58 226.50
  Q 607.41 218.21 609.20 189.18"
/>
<path stroke="#e3e0f6" vector-effect="non-scaling-stroke" d="
  M 423.87 876.60
  Q 496.20 877.70 568.50 875.05
  Q 589.56 874.28 610.49 871.96
  C 615.26 871.43 623.74 870.42 627.25 867.57
  A 0.74 0.74 0.0 0 0 627.50 866.78
  Q 627.00 864.96 625.42 864.48
  C 618.76 862.46 610.49 861.04 602.78 860.30
  Q 577.95 857.90 553.00 857.23
  C 510.30 856.08 467.70 856.28 424.99 856.70
  Q 390.59 857.04 356.24 859.05
  Q 336.71 860.20 320.72 864.37
  Q 319.31 864.74 318.46 866.53
  Q 318.25 866.97 318.56 867.36
  C 321.83 871.43 338.68 872.56 345.25 873.06
  Q 384.51 876.01 423.87 876.60"
/>
<path stroke="#fbdc82" vector-effect="non-scaling-stroke" d="
  M 388.76 211.80
  L 391.62 212.15
  A 0.92 0.92 0.0 0 0 392.65 211.35
  L 393.30 206.09
  A 5.72 1.97 -82.9 0 0 392.05 200.17
  L 391.28 200.08
  A 5.72 1.97 -82.9 0 0 388.62 205.51
  L 387.96 210.77
  A 0.92 0.92 0.0 0 0 388.76 211.80"
/>
<path stroke="#fbdc82" vector-effect="non-scaling-stroke" d="
  M 465.42 200.47
  L 465.22 208.11
  A 0.17 0.17 0.0 0 0 465.39 208.28
  L 465.52 208.28
  A 3.58 2.98 -88.5 0 0 468.59 204.78
  L 468.61 203.96
  A 3.58 2.98 -88.5 0 0 465.72 200.31
  L 465.59 200.30
  A 0.17 0.17 0.0 0 0 465.42 200.47"
/>
<path stroke="#fbdc82" vector-effect="non-scaling-stroke" d="
  M 542.2810 210.9848
  A 5.58 2.26 97.3 0 0 545.2317 205.7372
  A 5.58 2.26 97.3 0 0 543.6990 199.9152
  A 5.58 2.26 97.3 0 0 540.7483 205.1628
  A 5.58 2.26 97.3 0 0 542.2810 210.9848"
/>
<path stroke="#fbdc82" vector-effect="non-scaling-stroke" d="
  M 617.0035 209.6640
  A 4.75 1.12 96.0 0 0 618.6139 205.0571
  A 4.75 1.12 96.0 0 0 617.9965 200.2160
  A 4.75 1.12 96.0 0 0 616.3861 204.8229
  A 4.75 1.12 96.0 0 0 617.0035 209.6640"
/>
<path stroke="#8d6429" vector-effect="non-scaling-stroke" d="
  M 560.03 233.70
  Q 558.83 242.15 556.20 246.71
  Q 552.37 253.33 543.73 254.17
  Q 532.90 255.21 527.27 244.61"
/>
<path stroke="#675397" vector-effect="non-scaling-stroke" d="
  M 527.27 244.61
  Q 524.86 239.72 524.46 233.75
  Q 524.14 228.88 524.33 221.71"
/>
<path stroke="#8e87a5" vector-effect="non-scaling-stroke" d="
  M 524.33 221.71
  L 483.60 221.72
  Q 483.06 221.72 483.04 222.27
  L 482.75 233.63"
/>
<path stroke="#8d6429" vector-effect="non-scaling-stroke" d="
  M 482.75 233.63
  C 481.97 237.41 481.62 241.68 480.35 244.72
  Q 477.50 251.54 470.53 253.55
  Q 458.20 257.12 450.59 245.12"
/>
<path stroke="#675397" vector-effect="non-scaling-stroke" d="
  M 450.59 245.12
  Q 447.53 236.07 447.61 225.50
  Q 447.62 224.03 447.19 222.81"
/>
<path stroke="#8e87a5" vector-effect="non-scaling-stroke" d="
  M 447.19 222.81
  L 447.38 222.08
  Q 447.49 221.66 447.05 221.66
  L 408.25 221.76
  Q 407.85 221.76 407.83 222.15
  L 407.29 232.61"
/>
<path stroke="#8d6429" vector-effect="non-scaling-stroke" d="
  M 407.29 232.61
  C 406.08 242.28 405.38 251.05 394.06 253.79
  Q 381.43 256.86 374.65 243.64"
/>
<path stroke="#675397" vector-effect="non-scaling-stroke" d="
  M 374.65 243.64
  Q 371.04 233.84 372.31 222.73
  Q 372.38 222.16 371.81 222.05
  Q 370.79 221.87 369.53 222.16"
/>
<path stroke="#8e87a5" vector-effect="non-scaling-stroke" d="
  M 369.53 222.16
  L 313.67 222.57
  Q 313.17 222.58 313.28 223.06
  C 321.53 262.28 326.95 301.98 331.70 341.76
  Q 344.82 451.57 331.29 561.33
  Q 321.93 637.29 309.66 699.47
  Q 309.57 699.92 310.03 699.91
  Q 440.67 697.05 571.25 692.22
  Q 574.24 692.11 576.74 691.76
  A 1.14 1.13 -89.3 0 0 577.69 690.83
  Q 583.49 655.14 587.75 619.75
  C 588.65 612.27 590.65 606.74 598.67 606.13
  C 602.05 605.87 605.56 607.89 608.08 609.91
  C 629.95 627.44 647.11 641.10 668.51 653.48
  Q 673.02 656.10 677.92 657.66
  A 0.46 0.46 0.0 0 0 678.52 657.28
  Q 686.24 591.02 688.59 524.37
  Q 688.62 523.55 687.98 524.07
  L 686.19 525.53"
/>
<path stroke="#675397" vector-effect="non-scaling-stroke" d="
  M 686.19 525.53
  Q 656.60 547.07 620.00 550.64
  Q 612.89 551.33 596.00 552.08
  Q 546.02 554.31 496.38 555.78
  Q 495.55 555.81 495.48 554.98
  L 494.21 539.21
  A 0.72 0.72 0.0 0 0 493.48 538.54
  L 476.46 538.71"
/>
<path stroke="#8e87a5" vector-effect="non-scaling-stroke" d="
  M 476.46 538.71
  Q 430.65 538.78 384.87 538.65
  Q 382.37 538.64 381.22 538.15
  C 378.36 536.95 377.42 533.56 380.09 531.51
  Q 381.77 530.22 384.25 530.23
  Q 411.78 530.38 476.03 530.17"
/>
<path stroke="#675397" vector-effect="non-scaling-stroke" d="
  M 476.03 530.17
  L 492.66 530.10
  A 0.56 0.56 0.0 0 0 493.22 529.51
  Q 491.77 505.06 489.25 480.70
  C 487.05 459.39 485.31 438.06 483.07 416.76"
/>
<path stroke="#8e87a5" vector-effect="non-scaling-stroke" d="
  M 483.07 416.76
  L 481.82 406.57
  Q 481.76 406.06 481.31 405.80
  C 477.69 403.74 479.29 400.70 480.91 397.97
  Q 481.20 397.49 481.14 396.92
  L 478.93 374.02
  Q 478.89 373.64 478.51 373.64
  Q 433.63 373.84 388.75 373.79
  Q 386.32 373.79 384.99 370.62
  A 1.31 1.31 0.0 0 1 384.94 369.72
  Q 386.07 365.83 390.75 365.84
  Q 416.12 365.90 469.75 365.58
  C 476.70 365.54 484.77 364.65 490.75 364.46
  Q 582.14 361.67 673.77 357.98
  A 0.85 0.84 85.6 0 1 674.64 358.73
  Q 683.24 429.90 689.46 501.57
  Q 689.46 501.61 689.45 501.66
  Q 689.42 501.79 689.60 501.89
  A 0.14 0.14 0.0 0 0 689.81 501.77
  C 689.93 490.99 689.55 479.19 689.63 469.43
  Q 690.17 405.36 689.50 376.50
  Q 687.70 298.98 679.65 222.12
  Q 679.59 221.54 679.01 221.54
  L 634.41 221.46
  Q 633.80 221.46 633.77 222.07
  L 633.18 233.34"
/>
<path stroke="#8d6429" vector-effect="non-scaling-stroke" d="
  M 633.18 233.34
  C 631.59 243.93 629.71 253.25 616.75 254.22
  Q 605.70 255.05 600.45 243.62"
/>
<path stroke="#675397" vector-effect="non-scaling-stroke" d="
  M 600.45 243.62
  Q 597.29 233.90 598.50 222.66"
/>
<path stroke="#8e87a5" vector-effect="non-scaling-stroke" d="
  M 598.50 222.66
  Q 598.29 221.88 598.06 221.60
  Q 597.96 221.48 597.14 221.48
  Q 578.94 221.39 560.74 221.63
  Q 560.19 221.64 560.18 222.20
  L 560.03 233.70"
/>
<path stroke="#d5cbf0" vector-effect="non-scaling-stroke" d="
  M 598.50 222.66
  C 590.87 226.01 590.04 239.31 590.64 246.73
  Q 591.79 261.07 604.48 266.23"
/>
<path stroke="#fbdc82" vector-effect="non-scaling-stroke" d="
  M 604.48 266.23
  Q 613.38 271.15 623.00 267.98
  C 630.79 265.41 638.10 258.75 639.66 250.55
  Q 641.49 240.90 633.18 233.34"
/>
<path stroke="#d5cbf0" vector-effect="non-scaling-stroke" d="
  M 483.07 416.76
  Q 482.79 418.98 481.02 419.59
  Q 473.00 422.34 464.71 424.94
  Q 463.07 425.45 463.52 427.12
  Q 467.22 440.69 469.42 454.68"
/>
<path stroke="#8e87a5" vector-effect="non-scaling-stroke" d="
  M 469.42 454.68
  Q 464.76 458.92 470.01 462.45"
/>
<path stroke="#d5cbf0" vector-effect="non-scaling-stroke" d="
  M 470.01 462.45
  L 473.50 494.56"
/>
<path stroke="#8e87a5" vector-effect="non-scaling-stroke" d="
  M 473.50 494.56
  Q 430.61 494.51 387.20 494.50
  C 381.54 494.50 381.36 502.31 387.00 502.30
  Q 430.72 502.27 474.16 502.32"
/>
<path stroke="#d5cbf0" vector-effect="non-scaling-stroke" d="
  M 474.16 502.32
  L 476.03 530.17"
/>
<path stroke="#d5cbf0" vector-effect="non-scaling-stroke" d="
  M 476.46 538.71
  L 478.56 575.74"
/>
<path stroke="#8e87a5" vector-effect="non-scaling-stroke" d="
  M 478.56 575.74
  C 474.19 575.17 471.84 577.19 472.84 581.73
  A 1.62 1.61 85.7 0 0 474.31 583.00
  L 479.79 583.37"
/>
<path stroke="#d5cbf0" vector-effect="non-scaling-stroke" d="
  M 479.79 583.37
  Q 479.67 586.65 479.94 589.52
  Q 480.18 591.94 483.02 592.89
  Q 506.22 600.64 528.00 601.35
  Q 557.35 602.31 586.50 598.81
  Q 602.92 596.84 614.71 591.68
  Q 649.06 576.64 674.32 546.67
  C 678.02 542.28 681.63 536.56 685.38 531.59
  Q 686.67 529.88 686.99 528.87
  Q 687.65 526.75 686.19 525.53"
/>
<path stroke="#d5cbf0" vector-effect="non-scaling-stroke" d="
  M 369.53 222.16
  Q 370.15 222.05 370.65 222.24
  Q 371.14 222.44 370.71 222.75
  Q 369.10 223.93 367.88 226.52
  C 361.82 239.35 362.18 256.73 376.50 263.85"
/>
<path stroke="#fbdc82" vector-effect="non-scaling-stroke" d="
  M 376.50 263.85
  Q 387.14 272.59 401.05 268.25
  C 412.41 264.71 418.59 253.71 414.18 242.26
  Q 412.15 236.99 407.29 232.61"
/>
<path stroke="#d5cbf0" vector-effect="non-scaling-stroke" d="
  M 447.19 222.81
  Q 443.62 225.40 442.23 230.52
  C 438.41 244.57 440.84 258.39 454.90 265.59"
/>
<path stroke="#fbdc82" vector-effect="non-scaling-stroke" d="
  M 454.90 265.59
  Q 463.44 271.26 473.74 268.75
  C 481.41 266.88 487.82 261.10 489.61 253.28
  Q 492.14 242.27 482.75 233.63"
/>
<path stroke="#d5cbf0" vector-effect="non-scaling-stroke" d="
  M 524.33 221.71
  Q 521.40 223.56 520.83 224.82
  C 515.16 237.59 515.54 254.87 528.33 263.44"
/>
<path stroke="#fbdc82" vector-effect="non-scaling-stroke" d="
  M 528.33 263.44
  Q 539.68 272.61 552.68 268.64
  C 568.90 263.68 572.65 244.74 560.03 233.70"
/>
<path stroke="#d4a874" vector-effect="non-scaling-stroke" d="
  M 374.65 243.64
  Q 371.15 248.81 372.77 254.53
  Q 373.49 257.06 376.50 263.85"
/>
<path stroke="#675397" vector-effect="non-scaling-stroke" d="
  M 479.79 583.37
  Q 516.25 583.44 552.78 583.41
  C 559.68 583.40 560.31 575.83 554.00 575.77
  Q 515.95 575.37 478.56 575.74"
/>
<path stroke="#d4a874" vector-effect="non-scaling-stroke" d="
  M 527.27 244.61
  Q 524.67 253.23 528.33 263.44"
/>
<path stroke="#d4a874" vector-effect="non-scaling-stroke" d="
  M 450.59 245.12
  Q 446.74 255.03 454.90 265.59"
/>
<path stroke="#d4a874" vector-effect="non-scaling-stroke" d="
  M 600.45 243.62
  Q 598.31 247.50 598.11 249.41
  Q 597.14 258.73 604.48 266.23"
/>
<path stroke="#675397" vector-effect="non-scaling-stroke" d="
  M 474.16 502.32
  Q 480.87 502.74 487.24 502.29
  Q 490.36 502.07 490.25 499.56
  Q 490.05 494.92 485.28 494.56
  Q 482.90 494.39 473.50 494.56"
/>
<path stroke="#675397" vector-effect="non-scaling-stroke" d="
  M 470.01 462.45
  C 474.27 462.93 480.15 463.44 480.07 457.44
  C 480.01 453.25 471.54 454.21 469.42 454.68"
/>
<path stroke="#3a1674" vector-effect="non-scaling-stroke" d="
  M 684.02 751.82
  Q 678.19 753.49 673.50 753.62
  C 661.92 753.93 648.56 752.95 637.50 752.99
  Q 578.87 753.22 520.18 753.27"
/>
<path stroke="#4e1b8a" vector-effect="non-scaling-stroke" d="
  M 520.18 753.27
  C 463.04 752.64 405.89 752.92 348.75 752.79
  Q 327.24 752.74 305.72 753.13
  Q 305.24 753.14 305.10 753.60
  Q 304.22 756.51 301.88 758.41
  A 0.47 0.47 0.0 0 0 302.17 759.24
  L 524.25 759.16"
/>
<path stroke="#3a1674" vector-effect="non-scaling-stroke" d="
  M 524.25 759.16
  Q 581.11 758.88 637.98 759.10
  Q 648.69 759.14 657.02 758.68
  Q 669.77 757.98 676.00 757.07
  Q 678.96 756.64 685.17 753.75"
/>
<path stroke="#4e1b8a" vector-effect="non-scaling-stroke" d="
  M 685.17 753.75
  C 700.12 748.28 712.50 735.10 713.14 718.75
  Q 713.45 710.71 713.39 686.00
  Q 713.18 604.12 713.28 522.25
  Q 713.41 421.62 713.56 321.00
  Q 713.63 272.48 713.22 223.18
  A 0.56 0.56 0.0 0 0 712.27 222.79
  L 699.95 235.15
  A 2.64 2.59 67.9 0 0 699.19 237.00
  Q 699.83 383.21 699.91 529.75
  Q 699.91 539.15 699.82 549.75
  Q 699.04 641.38 699.85 733.02
  Q 699.88 736.17 699.68 737.98
  C 698.85 745.42 690.55 749.99 684.02 751.82"
/>
<path stroke="#6822b2" vector-effect="non-scaling-stroke" d="
  M 685.17 753.75
  Q 683.82 754.13 682.67 753.77
  Q 682.02 753.56 682.54 753.11
  L 684.02 751.82"
/>
<path stroke="#6822b2" vector-effect="non-scaling-stroke" d="
  M 524.25 759.16
  L 526.85 758.44
  A 1.25 1.25 0.0 0 0 527.25 756.22
  Q 524.27 754.07 520.18 753.27"
/>
<path stroke="#4e1b8a" vector-effect="non-scaling-stroke" d="
  M 324.12 530.62
  Q 328.68 481.19 327.09 425.74
  C 326.29 397.73 324.80 370.08 321.32 342.25
  C 318.89 322.81 317.04 303.24 313.83 283.89
  Q 311.11 267.44 308.72 251.06
  A 0.50 0.50 0.0 0 0 307.82 250.83
  C 301.05 260.09 299.92 268.09 299.93 280.51
  Q 300.08 482.78 299.88 685.91
  Q 299.87 693.83 301.30 686.04
  C 303.16 675.88 305.58 664.78 307.34 654.61
  Q 318.82 588.13 324.12 530.62"
/>
<path stroke="#8d6429" vector-effect="non-scaling-stroke" d="
  M 631.70 528.72
  C 648.45 529.39 668.52 527.64 680.95 515.86
  A 0.96 0.95 -24.4 0 0 681.25 515.08
  L 666.89 367.84
  Q 666.84 367.34 666.34 367.36
  L 489.29 373.04
  Q 488.89 373.05 488.93 373.45
  L 504.85 545.83
  A 0.21 0.21 0.0 0 0 505.07 546.02
  Q 558.80 544.03 612.23 541.63
  Q 621.33 541.22 630.60 540.17
  A 0.73 0.72 -3.5 0 0 631.25 539.44
  L 631.18 529.23
  A 0.50 0.50 0.0 0 1 631.70 528.72"
/>
<path stroke="#8e87a5" vector-effect="non-scaling-stroke" d="
  M 665.33 663.17
  C 644.05 650.86 625.23 636.60 604.49 619.76"
/>
<path stroke="#4e1b8a" vector-effect="non-scaling-stroke" d="
  M 604.49 619.76
  L 601.94 616.05
  A 1.52 1.52 0.0 0 0 599.17 616.88
  C 599.00 624.78 598.83 632.52 597.86 640.64
  Q 596.93 648.43 596.06 656.22
  Q 594.47 670.54 591.28 684.61
  A 0.29 0.28 5.2 0 0 591.58 684.96
  Q 631.10 683.25 666.06 665.24
  Q 666.54 664.99 666.37 664.48
  Q 666.15 663.80 665.33 663.17"
/>
<path stroke="#bc93e3" vector-effect="non-scaling-stroke" d="
  M 604.49 619.76
  Q 607.57 637.41 605.94 655.26
  Q 605.07 664.77 604.49 668.99
  A 0.44 0.44 0.0 0 0 604.99 669.49
  Q 634.97 665.51 665.33 663.17"
/>
<path stroke="#4e1b8a" vector-effect="non-scaling-stroke" d="
  M 377.71 711.63
  L 307.95 712.74
  A 1.85 1.84 5.8 0 0 306.19 714.17
  L 303.95 723.96
  A 0.42 0.42 0.0 0 0 304.36 724.47
  L 380.45 724.23"
/>
<path stroke="#3a1674" vector-effect="non-scaling-stroke" d="
  M 380.45 724.23
  Q 529.61 724.87 678.82 724.09
  A 1.37 1.37 0.0 0 0 680.19 722.72
  L 680.26 693.92
  A 0.83 0.82 88.7 0 0 679.40 693.09
  L 592.32 696.37
  A 1.08 1.07 -85.2 0 0 591.31 697.23
  L 588.86 709.04
  A 1.22 1.18 -9.5 0 1 588.28 709.83
  Q 586.92 710.61 585.25 710.60
  Q 481.47 710.27 377.71 711.63"
/>
<path stroke="#6822b2" vector-effect="non-scaling-stroke" d="
  M 380.45 724.23
  Q 378.65 720.13 378.54 715.49
  C 378.50 713.99 378.12 713.07 377.71 711.63"
/>
<path stroke="#8e87a5" vector-effect="non-scaling-stroke" d="
  M 455.3998 300.0863
  A 3.98 3.98 0.0 0 0 451.4129 296.1133
  L 374.9730 296.2467
  A 3.98 3.98 0.0 0 0 371.0000 300.2337
  L 371.0002 300.3337
  A 3.98 3.98 0.0 0 0 374.9871 304.3067
  L 451.4270 304.1733
  A 3.98 3.98 0.0 0 0 455.4000 300.1863
  L 455.3998 300.0863"
/>
<path stroke="#8e87a5" vector-effect="non-scaling-stroke" d="
  M 526.0498 300.0553
  A 3.93 3.93 0.0 0 0 522.1130 296.1322
  L 478.7531 296.2078
  A 3.93 3.93 0.0 0 0 474.8299 300.1447
  L 474.8302 300.2847
  A 3.93 3.93 0.0 0 0 478.7670 304.2078
  L 522.1269 304.1322
  A 3.93 3.93 0.0 0 0 526.0501 300.1953
  L 526.0498 300.0553"
/>
<path stroke="#8e87a5" vector-effect="non-scaling-stroke" d="
  M 623.88 300.15
  A 3.96 3.96 0.0 0 0 619.92 296.19
  L 555.30 296.19
  A 3.96 3.96 0.0 0 0 551.34 300.15
  L 551.34 300.27
  A 3.96 3.96 0.0 0 0 555.30 304.23
  L 619.92 304.23
  A 3.96 3.96 0.0 0 0 623.88 300.27
  L 623.88 300.15"
/>
<path stroke="#8e87a5" vector-effect="non-scaling-stroke" d="
  M 568.9300 335.0545
  A 7.03 4.31 0.2 0 0 561.9150 330.7200
  A 7.03 4.31 0.2 0 0 554.8700 335.0055
  A 7.03 4.31 0.2 0 0 561.8850 339.3400
  A 7.03 4.31 0.2 0 0 568.9300 335.0545"
/>
<path stroke="#8e87a5" vector-effect="non-scaling-stroke" d="
  M 534.3499 335.0087
  A 3.82 3.82 0.0 0 0 530.5232 331.1954
  L 467.9633 331.3046
  A 3.82 3.82 0.0 0 0 464.1500 335.1313
  L 464.1501 335.2313
  A 3.82 3.82 0.0 0 0 467.9768 339.0446
  L 530.5367 338.9354
  A 3.82 3.82 0.0 0 0 534.3500 335.1087
  L 534.3499 335.0087"
/>
<path stroke="#8e87a5" vector-effect="non-scaling-stroke" d="
  M 442.10 335.17
  A 3.88 3.88 0.0 0 0 438.22 331.29
  L 377.26 331.29
  A 3.88 3.88 0.0 0 0 373.38 335.17
  L 373.38 335.27
  A 3.88 3.88 0.0 0 0 377.26 339.15
  L 438.22 339.15
  A 3.88 3.88 0.0 0 0 442.10 335.27
  L 442.10 335.17"
/>
<path stroke="#8e87a5" vector-effect="non-scaling-stroke" d="
  M 621.3898 334.9721
  A 3.71 3.71 0.0 0 0 617.6733 331.2686
  L 593.1734 331.3114
  A 3.71 3.71 0.0 0 0 589.4698 335.0279
  L 589.4702 335.2279
  A 3.71 3.71 0.0 0 0 593.1867 338.9314
  L 617.6866 338.8886
  A 3.71 3.71 0.0 0 0 621.3902 335.1721
  L 621.3898 334.9721"
/>
<path stroke="#8e87a5" vector-effect="non-scaling-stroke" d="
  M 464.53 400.84
  A 3.85 3.85 0.0 0 0 460.68 396.99
  L 388.14 396.99
  A 3.85 3.85 0.0 0 0 384.29 400.84
  L 384.29 400.96
  A 3.85 3.85 0.0 0 0 388.14 404.81
  L 460.68 404.81
  A 3.85 3.85 0.0 0 0 464.53 400.96
  L 464.53 400.84"
/>
<path stroke="#8e87a5" vector-effect="non-scaling-stroke" d="
  M 391.6094 430.5702
  A 6.46 4.18 0.8 0 0 385.2084 426.3004
  A 6.46 4.18 0.8 0 0 378.6906 430.3898
  A 6.46 4.18 0.8 0 0 385.0916 434.6596
  A 6.46 4.18 0.8 0 0 391.6094 430.5702"
/>
<path stroke="#8e87a5" vector-effect="non-scaling-stroke" d="
  M 454.3196 430.3815
  A 3.82 3.82 0.0 0 0 450.4863 426.5749
  L 418.8865 426.6852
  A 3.82 3.82 0.0 0 0 415.0798 430.5185
  L 415.0804 430.6785
  A 3.82 3.82 0.0 0 0 418.9137 434.4851
  L 450.5135 434.3748
  A 3.82 3.82 0.0 0 0 454.3202 430.5415
  L 454.3196 430.3815"
/>
<path stroke="#8e87a5" vector-effect="non-scaling-stroke" d="
  M 455.34 458.62
  A 4.04 4.04 0.0 0 0 451.30 454.58
  L 387.14 454.58
  A 4.04 4.04 0.0 0 0 383.10 458.62
  L 383.10 458.72
  A 4.04 4.04 0.0 0 0 387.14 462.76
  L 451.30 462.76
  A 4.04 4.04 0.0 0 0 455.34 458.72
  L 455.34 458.62"
/>
<path stroke="#8e87a5" vector-effect="non-scaling-stroke" d="
  M 459.2898 579.3353
  A 3.76 3.76 0.0 0 0 455.5233 575.5819
  L 377.4434 575.7181
  A 3.76 3.76 0.0 0 0 373.6900 579.4847
  L 373.6902 579.5847
  A 3.76 3.76 0.0 0 0 377.4567 583.3381
  L 455.5366 583.2019
  A 3.76 3.76 0.0 0 0 459.2900 579.4353
  L 459.2898 579.3353"
/>
<path stroke="#8e87a5" vector-effect="non-scaling-stroke" d="
  M 457.24 609.18
  A 3.93 3.93 0.0 0 0 453.31 605.25
  L 374.55 605.25
  A 3.93 3.93 0.0 0 0 370.62 609.18
  L 370.62 609.26
  A 3.93 3.93 0.0 0 0 374.55 613.19
  L 453.31 613.19
  A 3.93 3.93 0.0 0 0 457.24 609.26
  L 457.24 609.18"
/>
<path stroke="#8e87a5" vector-effect="non-scaling-stroke" d="
  M 519.5401 609.6367
  A 3.79 3.79 0.0 0 0 515.7833 605.8138
  L 487.4444 605.5665
  A 3.79 3.79 0.0 0 0 483.6215 609.3233
  L 483.6199 609.5033
  A 3.79 3.79 0.0 0 0 487.3767 613.3262
  L 515.7156 613.5735
  A 3.79 3.79 0.0 0 0 519.5385 609.8167
  L 519.5401 609.6367"
/>
<path stroke="#8e87a5" vector-effect="non-scaling-stroke" d="
  M 567.85 609.58
  A 3.76 3.76 0.0 0 0 564.09 605.82
  L 540.95 605.82
  A 3.76 3.76 0.0 0 0 537.19 609.58
  L 537.19 609.80
  A 3.76 3.76 0.0 0 0 540.95 613.56
  L 564.09 613.56
  A 3.76 3.76 0.0 0 0 567.85 609.80
  L 567.85 609.58"
/>
<path stroke="#8e87a5" vector-effect="non-scaling-stroke" d="
  M 446.94 638.18
  A 3.70 3.70 0.0 0 0 443.24 634.48
  L 368.26 634.48
  A 3.70 3.70 0.0 0 0 364.56 638.18
  L 364.56 638.26
  A 3.70 3.70 0.0 0 0 368.26 641.96
  L 443.24 641.96
  A 3.70 3.70 0.0 0 0 446.94 638.26
  L 446.94 638.18"
/>
<path stroke="#8e87a5" vector-effect="non-scaling-stroke" d="
  M 527.8399 638.0733
  A 3.66 3.66 0.0 0 0 524.1735 634.4197
  L 477.9935 634.5003
  A 3.66 3.66 0.0 0 0 474.3399 638.1667
  L 474.3401 638.2867
  A 3.66 3.66 0.0 0 0 478.0065 641.9403
  L 524.1865 641.8597
  A 3.66 3.66 0.0 0 0 527.8401 638.1933
  L 527.8399 638.0733"
/>
<path stroke="#8d6429" vector-effect="non-scaling-stroke" d="
  M 585.50 469.29
  Q 602.50 484.53 619.02 500.28
  C 624.16 505.18 630.92 508.68 636.44 502.71
  C 641.58 497.14 637.82 491.39 633.18 487.32
  Q 615.71 471.96 599.14 455.88
  A 0.93 0.93 0.0 0 1 599.13 454.55
  Q 608.55 445.04 618.56 435.81
  C 621.54 433.06 624.61 430.18 624.62 426.02
  C 624.63 419.59 616.19 415.85 611.49 420.47
  Q 599.25 432.46 587.32 444.56
  A 0.78 0.78 0.0 0 1 586.24 444.58
  Q 568.98 428.31 551.55 412.25
  C 548.03 409.00 544.93 404.73 539.61 405.05
  C 535.47 405.30 532.03 407.91 531.11 412.05
  C 529.85 417.71 534.06 421.55 538.01 425.24
  Q 555.32 441.44 573.35 457.79
  A 0.87 0.86 44.8 0 1 573.36 459.07
  Q 561.80 469.78 550.43 480.71
  C 547.42 483.61 545.55 486.32 547.06 490.31
  C 549.28 496.19 555.96 497.39 560.67 493.15
  Q 568.30 486.29 584.69 469.32
  Q 585.08 468.92 585.50 469.29"
/>
<path stroke="#675397" vector-effect="non-scaling-stroke" d="
  M 618.2698 579.4245
  A 3.83 3.83 0.0 0 0 614.4332 575.6012
  L 569.9132 575.6789
  A 3.83 3.83 0.0 0 0 566.0899 579.5155
  L 566.0902 579.6555
  A 3.83 3.83 0.0 0 0 569.9268 583.4788
  L 614.4468 583.4011
  A 3.83 3.83 0.0 0 0 618.2701 579.5645
  L 618.2698 579.4245"
/>
</g>
<path fill="#fcfefd" d="
  M 0.00 0.00
  L 1024.00 0.00
  L 1024.00 1024.00
  L 0.00 1024.00
  L 0.00 0.00
  Z
  M 382.15 189.77
  C 376.46 187.59 374.56 192.40 374.02 196.79
  Q 373.95 197.32 373.42 197.37
  Q 368.92 197.77 360.75 198.27
  C 333.71 199.94 309.11 208.00 290.07 228.07
  Q 269.67 249.57 268.58 279.51
  Q 268.32 286.65 268.40 314.04
  L 268.33 315.29
  Q 268.30 315.78 267.99 316.15
  Q 259.08 326.85 246.70 343.94
  Q 192.39 418.92 182.20 509.79
  Q 181.06 519.88 180.69 529.72
  C 178.05 599.62 198.00 671.77 240.87 727.89
  Q 252.57 743.22 268.30 759.79
  L 268.45 780.94
  Q 268.46 781.56 269.08 781.56
  L 298.22 781.76
  L 298.96 782.82
  A 0.66 0.52 4.7 0 0 299.11 782.96
  C 407.20 864.21 555.80 859.98 667.58 790.62
  C 670.62 788.73 673.57 786.40 676.44 784.22
  Q 677.62 783.33 677.47 781.78
  C 706.20 780.25 730.39 761.17 737.80 733.31
  Q 740.54 731.88 741.57 730.52
  C 788.33 668.43 809.35 591.57 803.00 514.45
  C 799.15 467.64 783.56 421.07 760.40 380.10
  Q 750.78 363.08 738.96 348.37
  L 738.98 196.05
  Q 738.98 195.41 738.34 195.41
  L 630.43 196.03
  Q 634.56 189.15 630.02 183.55
  Q 623.17 175.12 613.21 180.98
  Q 608.59 183.71 609.20 189.18
  C 602.89 188.06 603.09 190.81 601.05 195.20
  Q 600.82 195.70 600.27 195.71
  L 556.41 196.06
  C 559.69 187.36 554.18 177.63 544.75 178.79
  Q 534.37 180.07 534.15 190.01
  C 528.53 187.38 527.28 191.39 525.91 195.62
  A 0.77 0.77 0.0 0 1 525.19 196.15
  L 480.23 196.49
  Q 479.49 196.12 479.64 195.78
  Q 483.01 188.07 477.50 182.29
  Q 473.17 177.75 467.26 178.93
  Q 457.56 180.86 457.87 189.94
  C 452.99 187.95 450.93 190.39 449.88 194.69
  C 449.29 197.15 447.33 196.42 445.43 196.43
  Q 425.56 196.54 403.68 196.58
  Q 407.71 189.80 403.26 183.56
  C 398.26 176.52 388.91 177.68 383.88 184.08
  C 382.58 185.73 382.52 187.76 382.15 189.77
  Z
  M 423.87 876.60
  Q 496.20 877.70 568.50 875.05
  Q 589.56 874.28 610.49 871.96
  C 615.26 871.43 623.74 870.42 627.25 867.57
  A 0.74 0.74 0.0 0 0 627.50 866.78
  Q 627.00 864.96 625.42 864.48
  C 618.76 862.46 610.49 861.04 602.78 860.30
  Q 577.95 857.90 553.00 857.23
  C 510.30 856.08 467.70 856.28 424.99 856.70
  Q 390.59 857.04 356.24 859.05
  Q 336.71 860.20 320.72 864.37
  Q 319.31 864.74 318.46 866.53
  Q 318.25 866.97 318.56 867.36
  C 321.83 871.43 338.68 872.56 345.25 873.06
  Q 384.51 876.01 423.87 876.60
  Z"
/>
<path fill="#f9b906" d="
  M 403.68 196.58
  Q 401.29 215.46 399.97 235.25
  C 399.49 242.42 393.79 250.67 385.49 245.63
  Q 380.01 242.31 380.16 234.98
  Q 380.53 216.77 382.37 193.92
  C 382.48 192.58 382.22 191.13 382.15 189.77
  C 382.52 187.76 382.58 185.73 383.88 184.08
  C 388.91 177.68 398.26 176.52 403.26 183.56
  Q 407.71 189.80 403.68 196.58
  Z
  M 388.76 211.80
  L 391.62 212.15
  A 0.92 0.92 0.0 0 0 392.65 211.35
  L 393.30 206.09
  A 5.72 1.97 -82.9 0 0 392.05 200.17
  L 391.28 200.08
  A 5.72 1.97 -82.9 0 0 388.62 205.51
  L 387.96 210.77
  A 0.92 0.92 0.0 0 0 388.76 211.80
  Z"
/>
<path fill="#f9b906" d="
  M 480.23 196.49
  Q 479.59 196.28 479.18 196.51
  Q 478.85 196.69 478.80 197.31
  Q 476.42 228.44 475.26 237.50
  C 474.53 243.18 466.51 250.55 460.88 245.51
  Q 454.92 240.17 455.46 230.98
  Q 456.67 210.51 457.87 189.94
  Q 457.56 180.86 467.26 178.93
  Q 473.17 177.75 477.50 182.29
  Q 483.01 188.07 479.64 195.78
  Q 479.49 196.12 480.23 196.49
  Z
  M 465.42 200.47
  L 465.22 208.11
  A 0.17 0.17 0.0 0 0 465.39 208.28
  L 465.52 208.28
  A 3.58 2.98 -88.5 0 0 468.59 204.78
  L 468.61 203.96
  A 3.58 2.98 -88.5 0 0 465.72 200.31
  L 465.59 200.30
  A 0.17 0.17 0.0 0 0 465.42 200.47
  Z"
/>
<path fill="#f9b906" d="
  M 556.41 196.06
  Q 555.52 195.70 555.41 196.99
  Q 553.65 216.62 551.91 236.24
  C 551.22 244.07 543.22 251.16 535.96 244.14
  Q 532.56 240.85 532.45 235.50
  Q 532.28 226.60 532.49 224.00
  Q 533.91 207.05 534.15 190.01
  Q 534.37 180.07 544.75 178.79
  C 554.18 177.63 559.69 187.36 556.41 196.06
  Z
  M 542.2810 210.9848
  A 5.58 2.26 97.3 0 0 545.2317 205.7372
  A 5.58 2.26 97.3 0 0 543.6990 199.9152
  A 5.58 2.26 97.3 0 0 540.7483 205.1628
  A 5.58 2.26 97.3 0 0 542.2810 210.9848
  Z"
/>
<path fill="#f9b906" d="
  M 630.43 196.03
  Q 627.79 214.20 626.30 233.25
  C 625.76 240.08 620.77 250.82 611.87 246.03
  C 605.50 242.60 605.89 233.29 606.58 226.50
  Q 607.41 218.21 609.20 189.18
  Q 608.59 183.71 613.21 180.98
  Q 623.17 175.12 630.02 183.55
  Q 634.56 189.15 630.43 196.03
  Z
  M 617.0035 209.6640
  A 4.75 1.12 96.0 0 0 618.6139 205.0571
  A 4.75 1.12 96.0 0 0 617.9965 200.2160
  A 4.75 1.12 96.0 0 0 616.3861 204.8229
  A 4.75 1.12 96.0 0 0 617.0035 209.6640
  Z"
/>
<path fill="#200f4c" d="
  M 609.20 189.18
  Q 607.41 218.21 606.58 226.50
  C 605.89 233.29 605.50 242.60 611.87 246.03
  C 620.77 250.82 625.76 240.08 626.30 233.25
  Q 627.79 214.20 630.43 196.03
  L 738.34 195.41
  Q 738.98 195.41 738.98 196.05
  L 738.96 348.37
  Q 738.96 532.71 738.89 716.75
  Q 738.88 725.04 737.80 733.31
  C 730.39 761.17 706.20 780.25 677.47 781.78
  L 298.22 781.76
  L 269.08 781.56
  Q 268.46 781.56 268.45 780.94
  L 268.30 759.79
  L 268.40 314.04
  Q 268.32 286.65 268.58 279.51
  Q 269.67 249.57 290.07 228.07
  C 309.11 208.00 333.71 199.94 360.75 198.27
  Q 368.92 197.77 373.42 197.37
  Q 373.95 197.32 374.02 196.79
  C 374.56 192.40 376.46 187.59 382.15 189.77
  C 382.22 191.13 382.48 192.58 382.37 193.92
  Q 380.53 216.77 380.16 234.98
  Q 380.01 242.31 385.49 245.63
  C 393.79 250.67 399.49 242.42 399.97 235.25
  Q 401.29 215.46 403.68 196.58
  Q 425.56 196.54 445.43 196.43
  C 447.33 196.42 449.29 197.15 449.88 194.69
  C 450.93 190.39 452.99 187.95 457.87 189.94
  Q 456.67 210.51 455.46 230.98
  Q 454.92 240.17 460.88 245.51
  C 466.51 250.55 474.53 243.18 475.26 237.50
  Q 476.42 228.44 478.80 197.31
  Q 478.85 196.69 479.18 196.51
  Q 479.59 196.28 480.23 196.49
  L 525.19 196.15
  A 0.77 0.77 0.0 0 0 525.91 195.62
  C 527.28 191.39 528.53 187.38 534.15 190.01
  Q 533.91 207.05 532.49 224.00
  Q 532.28 226.60 532.45 235.50
  Q 532.56 240.85 535.96 244.14
  C 543.22 251.16 551.22 244.07 551.91 236.24
  Q 553.65 216.62 555.41 196.99
  Q 555.52 195.70 556.41 196.06
  L 600.27 195.71
  Q 600.82 195.70 601.05 195.20
  C 603.09 190.81 602.89 188.06 609.20 189.18
  Z
  M 560.03 233.70
  Q 558.83 242.15 556.20 246.71
  Q 552.37 253.33 543.73 254.17
  Q 532.90 255.21 527.27 244.61
  Q 524.86 239.72 524.46 233.75
  Q 524.14 228.88 524.33 221.71
  L 483.60 221.72
  Q 483.06 221.72 483.04 222.27
  L 482.75 233.63
  C 481.97 237.41 481.62 241.68 480.35 244.72
  Q 477.50 251.54 470.53 253.55
  Q 458.20 257.12 450.59 245.12
  Q 447.53 236.07 447.61 225.50
  Q 447.62 224.03 447.19 222.81
  L 447.38 222.08
  Q 447.49 221.66 447.05 221.66
  L 408.25 221.76
  Q 407.85 221.76 407.83 222.15
  L 407.29 232.61
  C 406.08 242.28 405.38 251.05 394.06 253.79
  Q 381.43 256.86 374.65 243.64
  Q 371.04 233.84 372.31 222.73
  Q 372.38 222.16 371.81 222.05
  Q 370.79 221.87 369.53 222.16
  L 313.67 222.57
  Q 313.17 222.58 313.28 223.06
  C 321.53 262.28 326.95 301.98 331.70 341.76
  Q 344.82 451.57 331.29 561.33
  Q 321.93 637.29 309.66 699.47
  Q 309.57 699.92 310.03 699.91
  Q 440.67 697.05 571.25 692.22
  Q 574.24 692.11 576.74 691.76
  A 1.14 1.13 -89.3 0 0 577.69 690.83
  Q 583.49 655.14 587.75 619.75
  C 588.65 612.27 590.65 606.74 598.67 606.13
  C 602.05 605.87 605.56 607.89 608.08 609.91
  C 629.95 627.44 647.11 641.10 668.51 653.48
  Q 673.02 656.10 677.92 657.66
  A 0.46 0.46 0.0 0 0 678.52 657.28
  Q 686.24 591.02 688.59 524.37
  Q 688.62 523.55 687.98 524.07
  L 686.19 525.53
  Q 656.60 547.07 620.00 550.64
  Q 612.89 551.33 596.00 552.08
  Q 546.02 554.31 496.38 555.78
  Q 495.55 555.81 495.48 554.98
  L 494.21 539.21
  A 0.72 0.72 0.0 0 0 493.48 538.54
  L 476.46 538.71
  Q 430.65 538.78 384.87 538.65
  Q 382.37 538.64 381.22 538.15
  C 378.36 536.95 377.42 533.56 380.09 531.51
  Q 381.77 530.22 384.25 530.23
  Q 411.78 530.38 476.03 530.17
  L 492.66 530.10
  A 0.56 0.56 0.0 0 0 493.22 529.51
  Q 491.77 505.06 489.25 480.70
  C 487.05 459.39 485.31 438.06 483.07 416.76
  L 481.82 406.57
  Q 481.76 406.06 481.31 405.80
  C 477.69 403.74 479.29 400.70 480.91 397.97
  Q 481.20 397.49 481.14 396.92
  L 478.93 374.02
  Q 478.89 373.64 478.51 373.64
  Q 433.63 373.84 388.75 373.79
  Q 386.32 373.79 384.99 370.62
  A 1.31 1.31 0.0 0 1 384.94 369.72
  Q 386.07 365.83 390.75 365.84
  Q 416.12 365.90 469.75 365.58
  C 476.70 365.54 484.77 364.65 490.75 364.46
  Q 582.14 361.67 673.77 357.98
  A 0.85 0.84 85.6 0 1 674.64 358.73
  Q 683.24 429.90 689.46 501.57
  Q 689.46 501.61 689.45 501.66
  Q 689.42 501.79 689.60 501.89
  A 0.14 0.14 0.0 0 0 689.81 501.77
  C 689.93 490.99 689.55 479.19 689.63 469.43
  Q 690.17 405.36 689.50 376.50
  Q 687.70 298.98 679.65 222.12
  Q 679.59 221.54 679.01 221.54
  L 634.41 221.46
  Q 633.80 221.46 633.77 222.07
  L 633.18 233.34
  C 631.59 243.93 629.71 253.25 616.75 254.22
  Q 605.70 255.05 600.45 243.62
  Q 597.29 233.90 598.50 222.66
  Q 598.29 221.88 598.06 221.60
  Q 597.96 221.48 597.14 221.48
  Q 578.94 221.39 560.74 221.63
  Q 560.19 221.64 560.18 222.20
  L 560.03 233.70
  Z
  M 684.02 751.82
  Q 678.19 753.49 673.50 753.62
  C 661.92 753.93 648.56 752.95 637.50 752.99
  Q 578.87 753.22 520.18 753.27
  C 463.04 752.64 405.89 752.92 348.75 752.79
  Q 327.24 752.74 305.72 753.13
  Q 305.24 753.14 305.10 753.60
  Q 304.22 756.51 301.88 758.41
  A 0.47 0.47 0.0 0 0 302.17 759.24
  L 524.25 759.16
  Q 581.11 758.88 637.98 759.10
  Q 648.69 759.14 657.02 758.68
  Q 669.77 757.98 676.00 757.07
  Q 678.96 756.64 685.17 753.75
  C 700.12 748.28 712.50 735.10 713.14 718.75
  Q 713.45 710.71 713.39 686.00
  Q 713.18 604.12 713.28 522.25
  Q 713.41 421.62 713.56 321.00
  Q 713.63 272.48 713.22 223.18
  A 0.56 0.56 0.0 0 0 712.27 222.79
  L 699.95 235.15
  A 2.64 2.59 67.9 0 0 699.19 237.00
  Q 699.83 383.21 699.91 529.75
  Q 699.91 539.15 699.82 549.75
  Q 699.04 641.38 699.85 733.02
  Q 699.88 736.17 699.68 737.98
  C 698.85 745.42 690.55 749.99 684.02 751.82
  Z
  M 324.12 530.62
  Q 328.68 481.19 327.09 425.74
  C 326.29 397.73 324.80 370.08 321.32 342.25
  C 318.89 322.81 317.04 303.24 313.83 283.89
  Q 311.11 267.44 308.72 251.06
  A 0.50 0.50 0.0 0 0 307.82 250.83
  C 301.05 260.09 299.92 268.09 299.93 280.51
  Q 300.08 482.78 299.88 685.91
  Q 299.87 693.83 301.30 686.04
  C 303.16 675.88 305.58 664.78 307.34 654.61
  Q 318.82 588.13 324.12 530.62
  Z
  M 631.70 528.72
  C 648.45 529.39 668.52 527.64 680.95 515.86
  A 0.96 0.95 -24.4 0 0 681.25 515.08
  L 666.89 367.84
  Q 666.84 367.34 666.34 367.36
  L 489.29 373.04
  Q 488.89 373.05 488.93 373.45
  L 504.85 545.83
  A 0.21 0.21 0.0 0 0 505.07 546.02
  Q 558.80 544.03 612.23 541.63
  Q 621.33 541.22 630.60 540.17
  A 0.73 0.72 -3.5 0 0 631.25 539.44
  L 631.18 529.23
  A 0.50 0.50 0.0 0 1 631.70 528.72
  Z
  M 665.33 663.17
  C 644.05 650.86 625.23 636.60 604.49 619.76
  L 601.94 616.05
  A 1.52 1.52 0.0 0 0 599.17 616.88
  C 599.00 624.78 598.83 632.52 597.86 640.64
  Q 596.93 648.43 596.06 656.22
  Q 594.47 670.54 591.28 684.61
  A 0.29 0.28 5.2 0 0 591.58 684.96
  Q 631.10 683.25 666.06 665.24
  Q 666.54 664.99 666.37 664.48
  Q 666.15 663.80 665.33 663.17
  Z
  M 377.71 711.63
  L 307.95 712.74
  A 1.85 1.84 5.8 0 0 306.19 714.17
  L 303.95 723.96
  A 0.42 0.42 0.0 0 0 304.36 724.47
  L 380.45 724.23
  Q 529.61 724.87 678.82 724.09
  A 1.37 1.37 0.0 0 0 680.19 722.72
  L 680.26 693.92
  A 0.83 0.82 88.7 0 0 679.40 693.09
  L 592.32 696.37
  A 1.08 1.07 -85.2 0 0 591.31 697.23
  L 588.86 709.04
  A 1.22 1.18 -9.5 0 1 588.28 709.83
  Q 586.92 710.61 585.25 710.60
  Q 481.47 710.27 377.71 711.63
  Z"
/>
<path fill="#fcfefd" d="
  M 388.76 211.80
  A 0.92 0.92 0.0 0 1 387.96 210.77
  L 388.62 205.51
  A 5.72 1.97 -82.9 0 1 391.28 200.08
  L 392.05 200.17
  A 5.72 1.97 -82.9 0 1 393.30 206.09
  L 392.65 211.35
  A 0.92 0.92 0.0 0 1 391.62 212.15
  L 388.76 211.80
  Z"
/>
<ellipse fill="#fcfefd" cx="0.00" cy="0.00" transform="translate(542.99,205.45) rotate(97.3)" rx="5.58" ry="2.26"/>
<path fill="#fcfefd" d="
  M 465.42 200.47
  A 0.17 0.17 0.0 0 1 465.59 200.30
  L 465.72 200.31
  A 3.58 2.98 -88.5 0 1 468.61 203.96
  L 468.59 204.78
  A 3.58 2.98 -88.5 0 1 465.52 208.28
  L 465.39 208.28
  A 0.17 0.17 0.0 0 1 465.22 208.11
  L 465.42 200.47
  Z"
/>
<ellipse fill="#fcfefd" cx="0.00" cy="0.00" transform="translate(617.50,204.94) rotate(96.0)" rx="4.75" ry="1.12"/>
<path fill="#fcfefd" d="
  M 598.50 222.66
  C 590.87 226.01 590.04 239.31 590.64 246.73
  Q 591.79 261.07 604.48 266.23
  Q 613.38 271.15 623.00 267.98
  C 630.79 265.41 638.10 258.75 639.66 250.55
  Q 641.49 240.90 633.18 233.34
  L 633.77 222.07
  Q 633.80 221.46 634.41 221.46
  L 679.01 221.54
  Q 679.59 221.54 679.65 222.12
  Q 687.70 298.98 689.50 376.50
  Q 690.17 405.36 689.63 469.43
  C 689.55 479.19 689.93 490.99 689.81 501.77
  A 0.14 0.14 0.0 0 1 689.60 501.89
  Q 689.42 501.79 689.45 501.66
  Q 689.46 501.61 689.46 501.57
  Q 683.24 429.90 674.64 358.73
  A 0.85 0.84 85.6 0 0 673.77 357.98
  Q 582.14 361.67 490.75 364.46
  C 484.77 364.65 476.70 365.54 469.75 365.58
  Q 416.12 365.90 390.75 365.84
  Q 386.07 365.83 384.94 369.72
  A 1.31 1.31 0.0 0 0 384.99 370.62
  Q 386.32 373.79 388.75 373.79
  Q 433.63 373.84 478.51 373.64
  Q 478.89 373.64 478.93 374.02
  L 481.14 396.92
  Q 481.20 397.49 480.91 397.97
  C 479.29 400.70 477.69 403.74 481.31 405.80
  Q 481.76 406.06 481.82 406.57
  L 483.07 416.76
  Q 482.79 418.98 481.02 419.59
  Q 473.00 422.34 464.71 424.94
  Q 463.07 425.45 463.52 427.12
  Q 467.22 440.69 469.42 454.68
  Q 464.76 458.92 470.01 462.45
  L 473.50 494.56
  Q 430.61 494.51 387.20 494.50
  C 381.54 494.50 381.36 502.31 387.00 502.30
  Q 430.72 502.27 474.16 502.32
  L 476.03 530.17
  Q 411.78 530.38 384.25 530.23
  Q 381.77 530.22 380.09 531.51
  C 377.42 533.56 378.36 536.95 381.22 538.15
  Q 382.37 538.64 384.87 538.65
  Q 430.65 538.78 476.46 538.71
  L 478.56 575.74
  C 474.19 575.17 471.84 577.19 472.84 581.73
  A 1.62 1.61 85.7 0 0 474.31 583.00
  L 479.79 583.37
  Q 479.67 586.65 479.94 589.52
  Q 480.18 591.94 483.02 592.89
  Q 506.22 600.64 528.00 601.35
  Q 557.35 602.31 586.50 598.81
  Q 602.92 596.84 614.71 591.68
  Q 649.06 576.64 674.32 546.67
  C 678.02 542.28 681.63 536.56 685.38 531.59
  Q 686.67 529.88 686.99 528.87
  Q 687.65 526.75 686.19 525.53
  L 687.98 524.07
  Q 688.62 523.55 688.59 524.37
  Q 686.24 591.02 678.52 657.28
  A 0.46 0.46 0.0 0 1 677.92 657.66
  Q 673.02 656.10 668.51 653.48
  C 647.11 641.10 629.95 627.44 608.08 609.91
  C 605.56 607.89 602.05 605.87 598.67 606.13
  C 590.65 606.74 588.65 612.27 587.75 619.75
  Q 583.49 655.14 577.69 690.83
  A 1.14 1.13 -89.3 0 1 576.74 691.76
  Q 574.24 692.11 571.25 692.22
  Q 440.67 697.05 310.03 699.91
  Q 309.57 699.92 309.66 699.47
  Q 321.93 637.29 331.29 561.33
  Q 344.82 451.57 331.70 341.76
  C 326.95 301.98 321.53 262.28 313.28 223.06
  Q 313.17 222.58 313.67 222.57
  L 369.53 222.16
  Q 370.15 222.05 370.65 222.24
  Q 371.14 222.44 370.71 222.75
  Q 369.10 223.93 367.88 226.52
  C 361.82 239.35 362.18 256.73 376.50 263.85
  Q 387.14 272.59 401.05 268.25
  C 412.41 264.71 418.59 253.71 414.18 242.26
  Q 412.15 236.99 407.29 232.61
  L 407.83 222.15
  Q 407.85 221.76 408.25 221.76
  L 447.05 221.66
  Q 447.49 221.66 447.38 222.08
  L 447.19 222.81
  Q 443.62 225.40 442.23 230.52
  C 438.41 244.57 440.84 258.39 454.90 265.59
  Q 463.44 271.26 473.74 268.75
  C 481.41 266.88 487.82 261.10 489.61 253.28
  Q 492.14 242.27 482.75 233.63
  L 483.04 222.27
  Q 483.06 221.72 483.60 221.72
  L 524.33 221.71
  Q 521.40 223.56 520.83 224.82
  C 515.16 237.59 515.54 254.87 528.33 263.44
  Q 539.68 272.61 552.68 268.64
  C 568.90 263.68 572.65 244.74 560.03 233.70
  L 560.18 222.20
  Q 560.19 221.64 560.74 221.63
  Q 578.94 221.39 597.14 221.48
  Q 597.96 221.48 598.06 221.60
  Q 598.29 221.88 598.50 222.66
  Z
  M 455.3998 300.0863
  A 3.98 3.98 0.0 0 0 451.4129 296.1133
  L 374.9730 296.2467
  A 3.98 3.98 0.0 0 0 371.0000 300.2337
  L 371.0002 300.3337
  A 3.98 3.98 0.0 0 0 374.9871 304.3067
  L 451.4270 304.1733
  A 3.98 3.98 0.0 0 0 455.4000 300.1863
  L 455.3998 300.0863
  Z
  M 526.0498 300.0553
  A 3.93 3.93 0.0 0 0 522.1130 296.1322
  L 478.7531 296.2078
  A 3.93 3.93 0.0 0 0 474.8299 300.1447
  L 474.8302 300.2847
  A 3.93 3.93 0.0 0 0 478.7670 304.2078
  L 522.1269 304.1322
  A 3.93 3.93 0.0 0 0 526.0501 300.1953
  L 526.0498 300.0553
  Z
  M 623.88 300.15
  A 3.96 3.96 0.0 0 0 619.92 296.19
  L 555.30 296.19
  A 3.96 3.96 0.0 0 0 551.34 300.15
  L 551.34 300.27
  A 3.96 3.96 0.0 0 0 555.30 304.23
  L 619.92 304.23
  A 3.96 3.96 0.0 0 0 623.88 300.27
  L 623.88 300.15
  Z
  M 568.9300 335.0545
  A 7.03 4.31 0.2 0 0 561.9150 330.7200
  A 7.03 4.31 0.2 0 0 554.8700 335.0055
  A 7.03 4.31 0.2 0 0 561.8850 339.3400
  A 7.03 4.31 0.2 0 0 568.9300 335.0545
  Z
  M 534.3499 335.0087
  A 3.82 3.82 0.0 0 0 530.5232 331.1954
  L 467.9633 331.3046
  A 3.82 3.82 0.0 0 0 464.1500 335.1313
  L 464.1501 335.2313
  A 3.82 3.82 0.0 0 0 467.9768 339.0446
  L 530.5367 338.9354
  A 3.82 3.82 0.0 0 0 534.3500 335.1087
  L 534.3499 335.0087
  Z
  M 442.10 335.17
  A 3.88 3.88 0.0 0 0 438.22 331.29
  L 377.26 331.29
  A 3.88 3.88 0.0 0 0 373.38 335.17
  L 373.38 335.27
  A 3.88 3.88 0.0 0 0 377.26 339.15
  L 438.22 339.15
  A 3.88 3.88 0.0 0 0 442.10 335.27
  L 442.10 335.17
  Z
  M 621.3898 334.9721
  A 3.71 3.71 0.0 0 0 617.6733 331.2686
  L 593.1734 331.3114
  A 3.71 3.71 0.0 0 0 589.4698 335.0279
  L 589.4702 335.2279
  A 3.71 3.71 0.0 0 0 593.1867 338.9314
  L 617.6866 338.8886
  A 3.71 3.71 0.0 0 0 621.3902 335.1721
  L 621.3898 334.9721
  Z
  M 464.53 400.84
  A 3.85 3.85 0.0 0 0 460.68 396.99
  L 388.14 396.99
  A 3.85 3.85 0.0 0 0 384.29 400.84
  L 384.29 400.96
  A 3.85 3.85 0.0 0 0 388.14 404.81
  L 460.68 404.81
  A 3.85 3.85 0.0 0 0 464.53 400.96
  L 464.53 400.84
  Z
  M 391.6094 430.5702
  A 6.46 4.18 0.8 0 0 385.2084 426.3004
  A 6.46 4.18 0.8 0 0 378.6906 430.3898
  A 6.46 4.18 0.8 0 0 385.0916 434.6596
  A 6.46 4.18 0.8 0 0 391.6094 430.5702
  Z
  M 454.3196 430.3815
  A 3.82 3.82 0.0 0 0 450.4863 426.5749
  L 418.8865 426.6852
  A 3.82 3.82 0.0 0 0 415.0798 430.5185
  L 415.0804 430.6785
  A 3.82 3.82 0.0 0 0 418.9137 434.4851
  L 450.5135 434.3748
  A 3.82 3.82 0.0 0 0 454.3202 430.5415
  L 454.3196 430.3815
  Z
  M 455.34 458.62
  A 4.04 4.04 0.0 0 0 451.30 454.58
  L 387.14 454.58
  A 4.04 4.04 0.0 0 0 383.10 458.62
  L 383.10 458.72
  A 4.04 4.04 0.0 0 0 387.14 462.76
  L 451.30 462.76
  A 4.04 4.04 0.0 0 0 455.34 458.72
  L 455.34 458.62
  Z
  M 459.2898 579.3353
  A 3.76 3.76 0.0 0 0 455.5233 575.5819
  L 377.4434 575.7181
  A 3.76 3.76 0.0 0 0 373.6900 579.4847
  L 373.6902 579.5847
  A 3.76 3.76 0.0 0 0 377.4567 583.3381
  L 455.5366 583.2019
  A 3.76 3.76 0.0 0 0 459.2900 579.4353
  L 459.2898 579.3353
  Z
  M 457.24 609.18
  A 3.93 3.93 0.0 0 0 453.31 605.25
  L 374.55 605.25
  A 3.93 3.93 0.0 0 0 370.62 609.18
  L 370.62 609.26
  A 3.93 3.93 0.0 0 0 374.55 613.19
  L 453.31 613.19
  A 3.93 3.93 0.0 0 0 457.24 609.26
  L 457.24 609.18
  Z
  M 519.5401 609.6367
  A 3.79 3.79 0.0 0 0 515.7833 605.8138
  L 487.4444 605.5665
  A 3.79 3.79 0.0 0 0 483.6215 609.3233
  L 483.6199 609.5033
  A 3.79 3.79 0.0 0 0 487.3767 613.3262
  L 515.7156 613.5735
  A 3.79 3.79 0.0 0 0 519.5385 609.8167
  L 519.5401 609.6367
  Z
  M 567.85 609.58
  A 3.76 3.76 0.0 0 0 564.09 605.82
  L 540.95 605.82
  A 3.76 3.76 0.0 0 0 537.19 609.58
  L 537.19 609.80
  A 3.76 3.76 0.0 0 0 540.95 613.56
  L 564.09 613.56
  A 3.76 3.76 0.0 0 0 567.85 609.80
  L 567.85 609.58
  Z
  M 446.94 638.18
  A 3.70 3.70 0.0 0 0 443.24 634.48
  L 368.26 634.48
  A 3.70 3.70 0.0 0 0 364.56 638.18
  L 364.56 638.26
  A 3.70 3.70 0.0 0 0 368.26 641.96
  L 443.24 641.96
  A 3.70 3.70 0.0 0 0 446.94 638.26
  L 446.94 638.18
  Z
  M 527.8399 638.0733
  A 3.66 3.66 0.0 0 0 524.1735 634.4197
  L 477.9935 634.5003
  A 3.66 3.66 0.0 0 0 474.3399 638.1667
  L 474.3401 638.2867
  A 3.66 3.66 0.0 0 0 478.0065 641.9403
  L 524.1865 641.8597
  A 3.66 3.66 0.0 0 0 527.8401 638.1933
  L 527.8399 638.0733
  Z"
/>
<path fill="#ae97e2" d="
  M 524.33 221.71
  Q 524.14 228.88 524.46 233.75
  Q 524.86 239.72 527.27 244.61
  Q 524.67 253.23 528.33 263.44
  C 515.54 254.87 515.16 237.59 520.83 224.82
  Q 521.40 223.56 524.33 221.71
  Z"
/>
<path fill="#ae97e2" d="
  M 374.65 243.64
  Q 371.15 248.81 372.77 254.53
  Q 373.49 257.06 376.50 263.85
  C 362.18 256.73 361.82 239.35 367.88 226.52
  Q 369.10 223.93 370.71 222.75
  Q 371.14 222.44 370.65 222.24
  Q 370.15 222.05 369.53 222.16
  Q 370.79 221.87 371.81 222.05
  Q 372.38 222.16 372.31 222.73
  Q 371.04 233.84 374.65 243.64
  Z"
/>
<path fill="#7b27c8" d="
  M 685.17 753.75
  Q 683.82 754.13 682.67 753.77
  Q 682.02 753.56 682.54 753.11
  L 684.02 751.82
  C 690.55 749.99 698.85 745.42 699.68 737.98
  Q 699.88 736.17 699.85 733.02
  Q 699.04 641.38 699.82 549.75
  Q 699.91 539.15 699.91 529.75
  Q 699.83 383.21 699.19 237.00
  A 2.64 2.59 67.9 0 1 699.95 235.15
  L 712.27 222.79
  A 0.56 0.56 0.0 0 1 713.22 223.18
  Q 713.63 272.48 713.56 321.00
  Q 713.41 421.62 713.28 522.25
  Q 713.18 604.12 713.39 686.00
  Q 713.45 710.71 713.14 718.75
  C 712.50 735.10 700.12 748.28 685.17 753.75
  Z"
/>
<path fill="#ae97e2" d="
  M 447.19 222.81
  Q 447.62 224.03 447.61 225.50
  Q 447.53 236.07 450.59 245.12
  Q 446.74 255.03 454.90 265.59
  C 440.84 258.39 438.41 244.57 442.23 230.52
  Q 443.62 225.40 447.19 222.81
  Z"
/>
<path fill="#ae97e2" d="
  M 598.50 222.66
  Q 597.29 233.90 600.45 243.62
  Q 598.31 247.50 598.11 249.41
  Q 597.14 258.73 604.48 266.23
  Q 591.79 261.07 590.64 246.73
  C 590.04 239.31 590.87 226.01 598.50 222.66
  Z"
/>
<path fill="#f9b906" d="
  M 407.29 232.61
  Q 412.15 236.99 414.18 242.26
  C 418.59 253.71 412.41 264.71 401.05 268.25
  Q 387.14 272.59 376.50 263.85
  Q 373.49 257.06 372.77 254.53
  Q 371.15 248.81 374.65 243.64
  Q 381.43 256.86 394.06 253.79
  C 405.38 251.05 406.08 242.28 407.29 232.61
  Z"
/>
<path fill="#f9b906" d="
  M 633.18 233.34
  Q 641.49 240.90 639.66 250.55
  C 638.10 258.75 630.79 265.41 623.00 267.98
  Q 613.38 271.15 604.48 266.23
  Q 597.14 258.73 598.11 249.41
  Q 598.31 247.50 600.45 243.62
  Q 605.70 255.05 616.75 254.22
  C 629.71 253.25 631.59 243.93 633.18 233.34
  Z"
/>
<path fill="#f9b906" d="
  M 560.03 233.70
  C 572.65 244.74 568.90 263.68 552.68 268.64
  Q 539.68 272.61 528.33 263.44
  Q 524.67 253.23 527.27 244.61
  Q 532.90 255.21 543.73 254.17
  Q 552.37 253.33 556.20 246.71
  Q 558.83 242.15 560.03 233.70
  Z"
/>
<path fill="#f9b906" d="
  M 482.75 233.63
  Q 492.14 242.27 489.61 253.28
  C 487.82 261.10 481.41 266.88 473.74 268.75
  Q 463.44 271.26 454.90 265.59
  Q 446.74 255.03 450.59 245.12
  Q 458.20 257.12 470.53 253.55
  Q 477.50 251.54 480.35 244.72
  C 481.62 241.68 481.97 237.41 482.75 233.63
  Z"
/>
<path fill="#7b27c8" d="
  M 324.12 530.62
  Q 318.82 588.13 307.34 654.61
  C 305.58 664.78 303.16 675.88 301.30 686.04
  Q 299.87 693.83 299.88 685.91
  Q 300.08 482.78 299.93 280.51
  C 299.92 268.09 301.05 260.09 307.82 250.83
  A 0.50 0.50 0.0 0 1 308.72 251.06
  Q 311.11 267.44 313.83 283.89
  C 317.04 303.24 318.89 322.81 321.32 342.25
  C 324.80 370.08 326.29 397.73 327.09 425.74
  Q 328.68 481.19 324.12 530.62
  Z"
/>
<rect fill="#200f4c" x="-42.20" y="-4.03" transform="translate(413.20,300.21) rotate(-0.1)" width="84.40" height="8.06" rx="3.98"/>
<rect fill="#200f4c" x="-25.61" y="-4.00" transform="translate(500.44,300.17) rotate(-0.1)" width="51.22" height="8.00" rx="3.93"/>
<rect fill="#200f4c" x="551.34" y="296.19" width="72.54" height="8.04" rx="3.96"/>
<path fill="#f8aba0" d="
  M 268.40 314.04
  L 268.30 759.79
  Q 252.57 743.22 240.87 727.89
  C 198.00 671.77 178.05 599.62 180.69 529.72
  Q 181.06 519.88 182.20 509.79
  Q 192.39 418.92 246.70 343.94
  Q 259.08 326.85 267.99 316.15
  Q 268.30 315.78 268.33 315.29
  L 268.40 314.04
  Z"
/>
<ellipse fill="#200f4c" cx="0.00" cy="0.00" transform="translate(561.90,335.03) rotate(0.2)" rx="7.03" ry="4.31"/>
<rect fill="#200f4c" x="-35.10" y="-3.87" transform="translate(499.25,335.12) rotate(-0.1)" width="70.20" height="7.74" rx="3.82"/>
<rect fill="#200f4c" x="373.38" y="331.29" width="68.72" height="7.86" rx="3.88"/>
<rect fill="#200f4c" x="-15.96" y="-3.81" transform="translate(605.43,335.10) rotate(-0.1)" width="31.92" height="7.62" rx="3.71"/>
<path fill="#f8aba0" d="
  M 738.96 348.37
  Q 750.78 363.08 760.40 380.10
  C 783.56 421.07 799.15 467.64 803.00 514.45
  C 809.35 591.57 788.33 668.43 741.57 730.52
  Q 740.54 731.88 737.80 733.31
  Q 738.88 725.04 738.89 716.75
  Q 738.96 532.71 738.96 348.37
  Z"
/>
<path fill="#f9b906" d="
  M 631.18 529.23
  L 631.25 539.44
  A 0.73 0.72 -3.5 0 1 630.60 540.17
  Q 621.33 541.22 612.23 541.63
  Q 558.80 544.03 505.07 546.02
  A 0.21 0.21 0.0 0 1 504.85 545.83
  L 488.93 373.45
  Q 488.89 373.05 489.29 373.04
  L 666.34 367.36
  Q 666.84 367.34 666.89 367.84
  L 681.25 515.08
  A 0.96 0.95 -24.4 0 1 680.95 515.86
  C 668.52 527.64 648.45 529.39 631.70 528.72
  A 0.50 0.50 0.0 0 0 631.18 529.23
  Z
  M 585.50 469.29
  Q 602.50 484.53 619.02 500.28
  C 624.16 505.18 630.92 508.68 636.44 502.71
  C 641.58 497.14 637.82 491.39 633.18 487.32
  Q 615.71 471.96 599.14 455.88
  A 0.93 0.93 0.0 0 1 599.13 454.55
  Q 608.55 445.04 618.56 435.81
  C 621.54 433.06 624.61 430.18 624.62 426.02
  C 624.63 419.59 616.19 415.85 611.49 420.47
  Q 599.25 432.46 587.32 444.56
  A 0.78 0.78 0.0 0 1 586.24 444.58
  Q 568.98 428.31 551.55 412.25
  C 548.03 409.00 544.93 404.73 539.61 405.05
  C 535.47 405.30 532.03 407.91 531.11 412.05
  C 529.85 417.71 534.06 421.55 538.01 425.24
  Q 555.32 441.44 573.35 457.79
  A 0.87 0.86 44.8 0 1 573.36 459.07
  Q 561.80 469.78 550.43 480.71
  C 547.42 483.61 545.55 486.32 547.06 490.31
  C 549.28 496.19 555.96 497.39 560.67 493.15
  Q 568.30 486.29 584.69 469.32
  Q 585.08 468.92 585.50 469.29
  Z"
/>
<rect fill="#200f4c" x="384.29" y="396.99" width="80.24" height="7.82" rx="3.85"/>
<path fill="#200f4c" d="
  M 584.69 469.32
  Q 568.30 486.29 560.67 493.15
  C 555.96 497.39 549.28 496.19 547.06 490.31
  C 545.55 486.32 547.42 483.61 550.43 480.71
  Q 561.80 469.78 573.36 459.07
  A 0.87 0.86 44.8 0 0 573.35 457.79
  Q 555.32 441.44 538.01 425.24
  C 534.06 421.55 529.85 417.71 531.11 412.05
  C 532.03 407.91 535.47 405.30 539.61 405.05
  C 544.93 404.73 548.03 409.00 551.55 412.25
  Q 568.98 428.31 586.24 444.58
  A 0.78 0.78 0.0 0 0 587.32 444.56
  Q 599.25 432.46 611.49 420.47
  C 616.19 415.85 624.63 419.59 624.62 426.02
  C 624.61 430.18 621.54 433.06 618.56 435.81
  Q 608.55 445.04 599.13 454.55
  A 0.93 0.93 0.0 0 0 599.14 455.88
  Q 615.71 471.96 633.18 487.32
  C 637.82 491.39 641.58 497.14 636.44 502.71
  C 630.92 508.68 624.16 505.18 619.02 500.28
  Q 602.50 484.53 585.50 469.29
  Q 585.08 468.92 584.69 469.32
  Z"
/>
<path fill="#ae97e2" d="
  M 483.07 416.76
  C 485.31 438.06 487.05 459.39 489.25 480.70
  Q 491.77 505.06 493.22 529.51
  A 0.56 0.56 0.0 0 1 492.66 530.10
  L 476.03 530.17
  L 474.16 502.32
  Q 480.87 502.74 487.24 502.29
  Q 490.36 502.07 490.25 499.56
  Q 490.05 494.92 485.28 494.56
  Q 482.90 494.39 473.50 494.56
  L 470.01 462.45
  C 474.27 462.93 480.15 463.44 480.07 457.44
  C 480.01 453.25 471.54 454.21 469.42 454.68
  Q 467.22 440.69 463.52 427.12
  Q 463.07 425.45 464.71 424.94
  Q 473.00 422.34 481.02 419.59
  Q 482.79 418.98 483.07 416.76
  Z"
/>
<ellipse fill="#200f4c" cx="0.00" cy="0.00" transform="translate(385.15,430.48) rotate(0.8)" rx="6.46" ry="4.18"/>
<rect fill="#200f4c" x="-19.62" y="-3.90" transform="translate(434.70,430.53) rotate(-0.2)" width="39.24" height="7.80" rx="3.82"/>
<path fill="#200f4c" d="
  M 470.01 462.45
  Q 464.76 458.92 469.42 454.68
  C 471.54 454.21 480.01 453.25 480.07 457.44
  C 480.15 463.44 474.27 462.93 470.01 462.45
  Z"
/>
<rect fill="#200f4c" x="383.10" y="454.58" width="72.24" height="8.18" rx="4.04"/>
<path fill="#200f4c" d="
  M 473.50 494.56
  Q 482.90 494.39 485.28 494.56
  Q 490.05 494.92 490.25 499.56
  Q 490.36 502.07 487.24 502.29
  Q 480.87 502.74 474.16 502.32
  Q 430.72 502.27 387.00 502.30
  C 381.36 502.31 381.54 494.50 387.20 494.50
  Q 430.61 494.51 473.50 494.56
  Z"
/>
<path fill="#ae97e2" d="
  M 686.19 525.53
  Q 687.65 526.75 686.99 528.87
  Q 686.67 529.88 685.38 531.59
  C 681.63 536.56 678.02 542.28 674.32 546.67
  Q 649.06 576.64 614.71 591.68
  Q 602.92 596.84 586.50 598.81
  Q 557.35 602.31 528.00 601.35
  Q 506.22 600.64 483.02 592.89
  Q 480.18 591.94 479.94 589.52
  Q 479.67 586.65 479.79 583.37
  Q 516.25 583.44 552.78 583.41
  C 559.68 583.40 560.31 575.83 554.00 575.77
  Q 515.95 575.37 478.56 575.74
  L 476.46 538.71
  L 493.48 538.54
  A 0.72 0.72 0.0 0 1 494.21 539.21
  L 495.48 554.98
  Q 495.55 555.81 496.38 555.78
  Q 546.02 554.31 596.00 552.08
  Q 612.89 551.33 620.00 550.64
  Q 656.60 547.07 686.19 525.53
  Z
  M 618.2698 579.4245
  A 3.83 3.83 0.0 0 0 614.4332 575.6012
  L 569.9132 575.6789
  A 3.83 3.83 0.0 0 0 566.0899 579.5155
  L 566.0902 579.6555
  A 3.83 3.83 0.0 0 0 569.9268 583.4788
  L 614.4468 583.4011
  A 3.83 3.83 0.0 0 0 618.2701 579.5645
  L 618.2698 579.4245
  Z"
/>
<rect fill="#200f4c" x="-42.80" y="-3.81" transform="translate(416.49,579.46) rotate(-0.1)" width="85.60" height="7.62" rx="3.76"/>
<path fill="#200f4c" d="
  M 478.56 575.74
  Q 515.95 575.37 554.00 575.77
  C 560.31 575.83 559.68 583.40 552.78 583.41
  Q 516.25 583.44 479.79 583.37
  L 474.31 583.00
  A 1.62 1.61 85.7 0 1 472.84 581.73
  C 471.84 577.19 474.19 575.17 478.56 575.74
  Z"
/>
<rect fill="#200f4c" x="-26.09" y="-3.90" transform="translate(592.18,579.54) rotate(-0.1)" width="52.18" height="7.80" rx="3.83"/>
<rect fill="#200f4c" x="370.62" y="605.25" width="86.62" height="7.94" rx="3.93"/>
<rect fill="#200f4c" x="-17.96" y="-3.88" transform="translate(501.58,609.57) rotate(0.5)" width="35.92" height="7.76" rx="3.79"/>
<rect fill="#200f4c" x="537.19" y="605.82" width="30.66" height="7.74" rx="3.76"/>
<path fill="#7b27c8" d="
  M 604.49 619.76
  Q 607.57 637.41 605.94 655.26
  Q 605.07 664.77 604.49 668.99
  A 0.44 0.44 0.0 0 0 604.99 669.49
  Q 634.97 665.51 665.33 663.17
  Q 666.15 663.80 666.37 664.48
  Q 666.54 664.99 666.06 665.24
  Q 631.10 683.25 591.58 684.96
  A 0.29 0.28 5.2 0 1 591.28 684.61
  Q 594.47 670.54 596.06 656.22
  Q 596.93 648.43 597.86 640.64
  C 598.83 632.52 599.00 624.78 599.17 616.88
  A 1.52 1.52 0.0 0 1 601.94 616.05
  L 604.49 619.76
  Z"
/>
<path fill="#fcfefd" d="
  M 604.49 619.76
  C 625.23 636.60 644.05 650.86 665.33 663.17
  Q 634.97 665.51 604.99 669.49
  A 0.44 0.44 0.0 0 1 604.49 668.99
  Q 605.07 664.77 605.94 655.26
  Q 607.57 637.41 604.49 619.76
  Z"
/>
<rect fill="#200f4c" x="364.56" y="634.48" width="82.38" height="7.48" rx="3.70"/>
<rect fill="#200f4c" x="-26.75" y="-3.72" transform="translate(501.09,638.18) rotate(-0.1)" width="53.50" height="7.44" rx="3.66"/>
<path fill="#541c9b" d="
  M 380.45 724.23
  Q 378.65 720.13 378.54 715.49
  C 378.50 713.99 378.12 713.07 377.71 711.63
  Q 481.47 710.27 585.25 710.60
  Q 586.92 710.61 588.28 709.83
  A 1.22 1.18 -9.5 0 0 588.86 709.04
  L 591.31 697.23
  A 1.08 1.07 -85.2 0 1 592.32 696.37
  L 679.40 693.09
  A 0.83 0.82 88.7 0 1 680.26 693.92
  L 680.19 722.72
  A 1.37 1.37 0.0 0 1 678.82 724.09
  Q 529.61 724.87 380.45 724.23
  Z"
/>
<path fill="#7b27c8" d="
  M 377.71 711.63
  C 378.12 713.07 378.50 713.99 378.54 715.49
  Q 378.65 720.13 380.45 724.23
  L 304.36 724.47
  A 0.42 0.42 0.0 0 1 303.95 723.96
  L 306.19 714.17
  A 1.85 1.84 5.8 0 1 307.95 712.74
  L 377.71 711.63
  Z"
/>
<path fill="#541c9b" d="
  M 684.02 751.82
  L 682.54 753.11
  Q 682.02 753.56 682.67 753.77
  Q 683.82 754.13 685.17 753.75
  Q 678.96 756.64 676.00 757.07
  Q 669.77 757.98 657.02 758.68
  Q 648.69 759.14 637.98 759.10
  Q 581.11 758.88 524.25 759.16
  L 526.85 758.44
  A 1.25 1.25 0.0 0 0 527.25 756.22
  Q 524.27 754.07 520.18 753.27
  Q 578.87 753.22 637.50 752.99
  C 648.56 752.95 661.92 753.93 673.50 753.62
  Q 678.19 753.49 684.02 751.82
  Z"
/>
<path fill="#7b27c8" d="
  M 520.18 753.27
  Q 524.27 754.07 527.25 756.22
  A 1.25 1.25 0.0 0 1 526.85 758.44
  L 524.25 759.16
  L 302.17 759.24
  A 0.47 0.47 0.0 0 1 301.88 758.41
  Q 304.22 756.51 305.10 753.60
  Q 305.24 753.14 305.72 753.13
  Q 327.24 752.74 348.75 752.79
  C 405.89 752.92 463.04 752.64 520.18 753.27
  Z"
/>
<path fill="#f8aba0" d="
  M 677.47 781.78
  Q 677.62 783.33 676.44 784.22
  C 673.57 786.40 670.62 788.73 667.58 790.62
  C 555.80 859.98 407.20 864.21 299.11 782.96
  A 0.66 0.52 4.7 0 1 298.96 782.82
  L 298.22 781.76
  L 677.47 781.78
  Z"
/>
<path fill="#c9c2ef" d="
  M 423.87 876.60
  Q 384.51 876.01 345.25 873.06
  C 338.68 872.56 321.83 871.43 318.56 867.36
  Q 318.25 866.97 318.46 866.53
  Q 319.31 864.74 320.72 864.37
  Q 336.71 860.20 356.24 859.05
  Q 390.59 857.04 424.99 856.70
  C 467.70 856.28 510.30 856.08 553.00 857.23
  Q 577.95 857.90 602.78 860.30
  C 610.49 861.04 618.76 862.46 625.42 864.48
  Q 627.00 864.96 627.50 866.78
  A 0.74 0.74 0.0 0 1 627.25 867.57
  C 623.74 870.42 615.26 871.43 610.49 871.96
  Q 589.56 874.28 568.50 875.05
  Q 496.20 877.70 423.87 876.60
  Z"
/>
</svg>
