<svg width="2500" height="2500" viewBox="0 0 2500 2500" fill="none" xmlns="http://www.w3.org/2000/svg">
<g clip-path="url(#clip0_4_40)">
<mask id="mask0_4_40" style="mask-type:luminance" maskUnits="userSpaceOnUse" x="250" y="250" width="2000" height="2000">
<path d="M1250 2250C1802.28 2250 2250 1802.28 2250 1250C2250 697.715 1802.28 250 1250 250C697.715 250 250 697.715 250 1250C250 1802.28 697.715 2250 1250 2250Z" fill="white"/>
</mask>
<g mask="url(#mask0_4_40)">
<path d="M1678.13 812.5H312.5C278.125 812.5 250 784.375 250 750V312.5C250 278.125 278.125 250 312.5 250H2093.75C2128.13 250 2156.25 278.125 2156.25 312.5V334.375C2153.12 596.875 1940.63 812.5 1678.13 812.5Z" fill="#F0BF1A"/>
</g>
<mask id="mask1_4_40" style="mask-type:luminance" maskUnits="userSpaceOnUse" x="250" y="250" width="2000" height="2000">
<path d="M1250 2250C1802.28 2250 2250 1802.28 2250 1250C2250 697.715 1802.28 250 1250 250C697.715 250 250 697.715 250 1250C250 1802.28 697.715 2250 1250 2250Z" fill="white"/>
</mask>
<g mask="url(#mask1_4_40)">
<path d="M2159.37 2250H256.25V1687.5H1684.38C1946.88 1687.5 2159.37 1900 2159.37 2162.5V2250Z" fill="#3EBEB0"/>
</g>
<mask id="mask2_4_40" style="mask-type:luminance" maskUnits="userSpaceOnUse" x="250" y="250" width="2000" height="2000">
<path d="M1250 2250C1802.28 2250 2250 1802.28 2250 1250C2250 697.715 1802.28 250 1250 250C697.715 250 250 697.715 250 1250C250 1802.28 697.715 2250 1250 2250Z" fill="white"/>
</mask>
<g mask="url(#mask2_4_40)">
<path d="M1565.62 1531.25H150V968.75H1565.62C1721.87 968.75 1846.87 1093.75 1846.87 1250C1846.87 1406.25 1718.75 1531.25 1565.62 1531.25Z" fill="#07A5DE"/>
</g>
<mask id="mask3_4_40" style="mask-type:luminance" maskUnits="userSpaceOnUse" x="250" y="250" width="2000" height="2000">
<path d="M1250 2250C1802.28 2250 2250 1802.28 2250 1250C2250 697.715 1802.28 250 1250 250C697.715 250 250 697.715 250 1250C250 1802.28 697.715 2250 1250 2250Z" fill="white"/>
</mask>
<g mask="url(#mask3_4_40)">
<path d="M1125 968.75H200V1531.25H1125C1146.88 1446.87 1159.37 1353.12 1159.37 1250C1159.37 1146.88 1146.88 1053.13 1125 968.75Z" fill="#CE0000"/>
</g>
<path d="M746.875 384.375C578.125 484.375 437.5 634.375 350 812.5H1087.5C1012.5 640.625 893.75 496.875 746.875 384.375Z" fill="#D72929"/>
<path d="M778.125 2131.25C921.875 2015.62 1037.5 1862.5 1109.38 1687.5H350C443.75 1875 593.75 2031.25 778.125 2131.25Z" fill="#9B0101"/>
</g>
<defs>
<clipPath id="clip0_4_40">
<rect width="2500" height="2500" fill="white"/>
</clipPath>
</defs>
</svg>
